<svg id="Calque_1" data-name="Calque 1" xmlns="http://www.w3.org/2000/svg" viewBox="0 0 70 70"><defs><style>.cls-1{fill:#255cff;}.cls-2,.cls-6{fill:#fff;}.cls-2,.cls-4{fill-opacity:0.38;}.cls-2,.cls-3,.cls-4{fill-rule:evenodd;}.cls-3{fill:#393939;opacity:0.32;isolation:isolate;}.cls-5{stroke:#000;}.cls-5,.cls-6{stroke-miterlimit:10;}.cls-6{stroke:#fff;}</style></defs><title>icon</title><rect class="cls-1" width="70" height="70"/><path class="cls-2" d="M4,1.1H65c2.67,0,4.33.67,5,2V.1H0v3C.67,1.77,2,1.1,4,1.1Z" transform="translate(0 -0.1)"/><path class="cls-3" d="M41.69,69.1H4.18C2.09,69.1,0,69,0,65V41.1L20.57,16.17l28.6-1.07,3.06,35.28Z" transform="translate(0 -0.1)"/><path class="cls-4" d="M4,69.1H65c2.67,0,4.33-1,5-3v4H0v-4A3.92,3.92,0,0,0,4,69.1Z" transform="translate(0 -0.1)"/><path class="cls-5" d="M7.77,36.79a23.43,23.43,0,0,0,5.17,14.67l.66.75L32.44,33.37,46.53,19.2l-.75-.58a23.39,23.39,0,0,0-38,18.17Zm16-13,.09-.33H30l.09.33a3.05,3.05,0,0,1-.5,2.08l-1,1.5v2.75H25.27V27.37l-1-1.5A3.05,3.05,0,0,1,23.77,23.79Zm.5-2a3,3,0,0,1,4-1.34,2.58,2.58,0,0,1,1.34,1.34Zm.34,10h1.5v5.5l-4.17,4.17V37.63H20.27v5.5l-3.33,3.33V37.21A2.46,2.46,0,0,1,18.35,35Zm3.16,3.84V31.79h1.5l1.59.75ZM32,31.37l-1.75-.91V27.87L31,26.79a4.4,4.4,0,0,0,.75-3.25l-.16-1.08a4.69,4.69,0,0,0-5.25-4,4.77,4.77,0,0,0-4,4l-.17,1.08a4.4,4.4,0,0,0,.75,3.25l.75,1.08v2.59l-6.09,3a4.19,4.19,0,0,0-2.33,3.75v11L13.69,49.8a21.86,21.86,0,0,1,4.5-30.43,21.62,21.62,0,0,1,25.75,0Z" transform="translate(0 -0.1)"/><path class="cls-5" d="M52,19.7l-33,33,.75.59A23.35,23.35,0,0,0,52.61,20.45ZM43,39.29H49.2l.16,1.17a.8.8,0,0,1-.16.58l-1.42,2.17v3.25l-1.67,1.67-1.67-1.67V43.21L43,41a1.38,1.38,0,0,1-.17-.58Zm.25-1.66.16-.92a.89.89,0,0,1,.84-.75H48a.87.87,0,0,1,.83.75l.17.92Zm.16,10.17,1.84,1.83v4.25a21.05,21.05,0,0,1-9.17,2.83V52a.81.81,0,0,1,.5-.75Zm3.51,5V49.63l1.83-1.83L51.11,49A20.44,20.44,0,0,1,47,52.8Zm5.16-5.17L49.45,46.3V43.71L50.61,42A2.61,2.61,0,0,0,51,40.21l-.5-3.75A2.52,2.52,0,0,0,48,34.29H44.28a2.51,2.51,0,0,0-2.5,2.17l-.5,3.75A2.6,2.6,0,0,0,41.69,42l1.17,1.75V46.3l-6.92,3.5a2.5,2.5,0,0,0-1.41,2.25V56.8a21.81,21.81,0,0,1-12.92-4.25L52,22.21A21.77,21.77,0,0,1,52.11,47.63Z" transform="translate(0 -0.1)"/><path class="cls-5" d="M48,31.19l3.36-3.36L52.58,29l-3.36,3.36Z" transform="translate(0 -0.1)"/><path class="cls-5" d="M27.2,52.86l2.47-2.47,1.18,1.17L28.38,54Z" transform="translate(0 -0.1)"/><path class="cls-5" d="M31.38,47l5-5,1.18,1.18-5,5Z" transform="translate(0 -0.1)"/><path class="cls-5" d="M47.2,17l2.48-2.48,1.18,1.18L48.38,18.2Z" transform="translate(0 -0.1)"/><path class="cls-5" d="M43.88,13.68l4.18-4.19,1.18,1.18-4.19,4.19Z" transform="translate(0 -0.1)"/><path class="cls-5" d="M12.2,59.52l5-5,1.17,1.18-5,5Z" transform="translate(0 -0.1)"/><path class="cls-5" d="M18,59.53l2.47-2.48,1.18,1.18-2.47,2.48Z" transform="translate(0 -0.1)"/><path class="cls-5" d="M35.53,21.19,38,18.71l1.18,1.18-2.48,2.48Z" transform="translate(0 -0.1)"/><path class="cls-5" d="M12.65,30.79l4.6-4.6,1.18,1.18L13.83,32Z" transform="translate(0 -0.1)"/><path class="cls-5" d="M39.44,51.8h3.34v1.66H39.44Z" transform="translate(0 -0.1)"/><path class="cls-6" d="M8.09,35.79a23.49,23.49,0,0,0,5.17,14.67l.67.75L32.77,32.37,46.85,18.2l-.75-.58a23.39,23.39,0,0,0-38,18.17Zm16-13,.08-.33h6.17l.08.33a3,3,0,0,1-.5,2.08l-1,1.5v2.75H25.6V26.37l-1-1.5A3,3,0,0,1,24.1,22.79Zm.5-2a3,3,0,0,1,4-1.34,2.6,2.6,0,0,1,1.33,1.34Zm.33,10h1.5v5.5l-4.17,4.17V36.63H20.6v5.5l-3.34,3.33V36.21A2.45,2.45,0,0,1,18.68,34Zm3.17,3.84V30.79h1.5l1.58.75Zm4.25-4.26-1.75-.91V26.87l.75-1.08a4.45,4.45,0,0,0,.75-3.25l-.17-1.08a4.68,4.68,0,0,0-5.25-4,4.78,4.78,0,0,0-4,4l-.17,1.08a4.5,4.5,0,0,0,.75,3.25L24,26.87v2.59l-6.08,3a4.18,4.18,0,0,0-2.34,3.75v11L14,48.8a21.88,21.88,0,0,1,4.5-30.43,21.63,21.63,0,0,1,25.76,0Z" transform="translate(0 -0.1)"/><path class="cls-6" d="M52.35,18.7l-33,33,.75.59A23.35,23.35,0,0,0,52.94,19.45Zm-9,19.59h6.17l.17,1.17a.76.76,0,0,1-.17.58L48.1,42.21v3.25l-1.66,1.67-1.67-1.67V42.21L43.35,40a1.54,1.54,0,0,1-.17-.58Zm.25-1.66.17-.92A.88.88,0,0,1,44.6,35h3.75a.89.89,0,0,1,.84.75l.16.92Zm.17,10.17,1.83,1.83v4.25a21,21,0,0,1-9.17,2.83V51a.81.81,0,0,1,.5-.75Zm3.5,5V48.63L49.1,46.8,51.44,48A20.5,20.5,0,0,1,47.27,51.8Zm5.17-5.17L49.77,45.3V42.71L50.94,41a2.6,2.6,0,0,0,.41-1.75l-.5-3.75a2.51,2.51,0,0,0-2.5-2.17H44.6a2.52,2.52,0,0,0-2.5,2.17l-.5,3.75A2.61,2.61,0,0,0,42,41l1.16,1.75V45.3l-6.91,3.5a2.49,2.49,0,0,0-1.42,2.25V55.8a21.81,21.81,0,0,1-12.92-4.25L52.27,21.21A21.77,21.77,0,0,1,52.44,46.63Z" transform="translate(0 -0.1)"/><path class="cls-6" d="M48.36,30.19l3.36-3.36L52.9,28l-3.36,3.36Z" transform="translate(0 -0.1)"/><path class="cls-6" d="M27.52,51.86,30,49.39l1.17,1.17L28.7,53Z" transform="translate(0 -0.1)"/><path class="cls-6" d="M31.7,46l5-5,1.18,1.18-5,5Z" transform="translate(0 -0.1)"/><path class="cls-6" d="M47.53,16,50,13.54l1.18,1.18L48.7,17.2Z" transform="translate(0 -0.1)"/><path class="cls-6" d="M44.2,12.68l4.18-4.19,1.18,1.18-4.18,4.19Z" transform="translate(0 -0.1)"/><path class="cls-6" d="M12.53,58.52l5-5,1.18,1.18-5,5Z" transform="translate(0 -0.1)"/><path class="cls-6" d="M18.35,58.53l2.48-2.48L22,57.23l-2.48,2.48Z" transform="translate(0 -0.1)"/><path class="cls-6" d="M35.86,20.19l2.47-2.48,1.18,1.18L37,21.37Z" transform="translate(0 -0.1)"/><path class="cls-6" d="M13,29.79l4.6-4.6,1.18,1.18L14.15,31Z" transform="translate(0 -0.1)"/><path class="cls-6" d="M39.77,50.8H43.1v1.66H39.77Z" transform="translate(0 -0.1)"/></svg>